<mxfile host="65bd71144e">
    <diagram id="WC_zRfK3k4rd-bbKxFTX" name="Page-1">
        <mxGraphModel dx="1970" dy="1949" grid="1" gridSize="10" guides="1" tooltips="1" connect="1" arrows="1" fold="1" page="1" pageScale="1" pageWidth="850" pageHeight="1100" math="0" shadow="0">
            <root>
                <mxCell id="0"/>
                <mxCell id="1" parent="0"/>
                <mxCell id="3" value="" style="strokeWidth=1;shadow=0;dashed=0;align=center;html=1;shape=mxgraph.mockup.containers.browserWindow;rSize=0;strokeColor=#666666;strokeColor2=#008cff;strokeColor3=#c4c4c4;mainText=,;recursiveResize=0;" parent="1" vertex="1">
                    <mxGeometry x="-450" y="90" width="960" height="800" as="geometry"/>
                </mxCell>
                <mxCell id="4" value="Page 1" style="strokeWidth=1;shadow=0;dashed=0;align=center;html=1;shape=mxgraph.mockup.containers.anchor;fontSize=17;fontColor=#666666;align=left;" parent="3" vertex="1">
                    <mxGeometry x="60" y="12" width="110" height="26" as="geometry"/>
                </mxCell>
                <mxCell id="5" value="https://www.draw.io" style="strokeWidth=1;shadow=0;dashed=0;align=center;html=1;shape=mxgraph.mockup.containers.anchor;rSize=0;fontSize=17;fontColor=#666666;align=left;" parent="3" vertex="1">
                    <mxGeometry x="130" y="60" width="250" height="26" as="geometry"/>
                </mxCell>
                <mxCell id="21" value="" style="line;strokeWidth=2;html=1;" parent="3" vertex="1">
                    <mxGeometry x="10" y="170" width="940" height="10" as="geometry"/>
                </mxCell>
                <mxCell id="22" value="LOGO" style="shape=ext;double=1;rounded=1;whiteSpace=wrap;html=1;" parent="3" vertex="1">
                    <mxGeometry x="10" y="120" width="90" height="50" as="geometry"/>
                </mxCell>
                <mxCell id="24" value="Home" style="text;html=1;strokeColor=none;fillColor=none;align=center;verticalAlign=middle;whiteSpace=wrap;rounded=0;" parent="3" vertex="1">
                    <mxGeometry x="700" y="150" width="60" height="20" as="geometry"/>
                </mxCell>
                <mxCell id="29" value="Services" style="text;html=1;strokeColor=none;fillColor=none;align=center;verticalAlign=middle;whiteSpace=wrap;rounded=0;" parent="3" vertex="1">
                    <mxGeometry x="750" y="150" width="60" height="20" as="geometry"/>
                </mxCell>
                <mxCell id="30" value="About" style="text;html=1;strokeColor=none;fillColor=none;align=center;verticalAlign=middle;whiteSpace=wrap;rounded=0;" parent="3" vertex="1">
                    <mxGeometry x="800" y="150" width="60" height="20" as="geometry"/>
                </mxCell>
                <mxCell id="31" value="Contact" style="text;html=1;strokeColor=none;fillColor=none;align=center;verticalAlign=middle;whiteSpace=wrap;rounded=0;" parent="3" vertex="1">
                    <mxGeometry x="850" y="150" width="60" height="20" as="geometry"/>
                </mxCell>
                <mxCell id="33" value="&lt;p&gt;&lt;strong&gt;Welcome to SG-Siding – Your Trusted Partner in Quality Siding Solutions&lt;/strong&gt;&lt;/p&gt;&lt;p&gt;At &lt;strong&gt;SG-Siding&lt;/strong&gt;&amp;nbsp;we specialize in delivering top-notch siding services designed to protect and beautify your home or commercial property. With years of experience in the industry, our team is committed to providing exceptional craftsmanship, durable materials, and personalized service to meet your unique needs.&lt;/p&gt;&lt;p&gt;Whether you're looking to enhance curb appeal, improve energy efficiency, or safeguard your property against the elements, we’re here to bring your vision to life. From consultation to installation, our process is seamless, reliable, and tailored to exceed your expectations.&lt;/p&gt;&lt;h3&gt;Why Choose Us?&lt;/h3&gt;&lt;ul&gt;&lt;li&gt;&lt;strong&gt;Expert Craftsmanship&lt;/strong&gt;: Meticulous attention to detail and high-quality installations.&lt;/li&gt;&lt;li&gt;&lt;strong&gt;Premium Materials&lt;/strong&gt;: Durable and long-lasting siding options from trusted brands.&lt;/li&gt;&lt;li&gt;&lt;strong&gt;Customer-Centric Approach&lt;/strong&gt;: Your satisfaction is our top priority.&lt;/li&gt;&lt;li&gt;&lt;strong&gt;Affordable Solutions&lt;/strong&gt;: Transparent pricing without compromising on quality.&lt;/li&gt;&lt;li&gt;&lt;strong&gt;Local &amp;amp; Reliable&lt;/strong&gt;: Proudly serving the Cowichan Valley, with a reputation built on trust.&lt;/li&gt;&lt;/ul&gt;&lt;p&gt;Explore our wide range of siding options, including vinyl, fiber cement, and wood, and let us help you create a property you’ll be proud of for years to come.&lt;/p&gt;&lt;p&gt;Contact us today for a free consultation or quote!&lt;/p&gt;" style="text;html=1;strokeColor=none;fillColor=none;align=center;verticalAlign=middle;whiteSpace=wrap;rounded=0;" parent="3" vertex="1">
                    <mxGeometry x="155" y="200" width="650" height="490" as="geometry"/>
                </mxCell>
                <mxCell id="32" value="Text" style="text;html=1;strokeColor=none;fillColor=none;align=center;verticalAlign=middle;whiteSpace=wrap;rounded=0;" parent="1" vertex="1">
                    <mxGeometry x="390" y="560" width="60" height="30" as="geometry"/>
                </mxCell>
                <mxCell id="34" value="" style="strokeWidth=1;shadow=0;dashed=0;align=center;html=1;shape=mxgraph.mockup.containers.browserWindow;rSize=0;strokeColor=#666666;strokeColor2=#008cff;strokeColor3=#c4c4c4;mainText=,;recursiveResize=0;" parent="1" vertex="1">
                    <mxGeometry x="3370" y="-20" width="960" height="800" as="geometry"/>
                </mxCell>
                <mxCell id="35" value="Page 1" style="strokeWidth=1;shadow=0;dashed=0;align=center;html=1;shape=mxgraph.mockup.containers.anchor;fontSize=17;fontColor=#666666;align=left;" parent="34" vertex="1">
                    <mxGeometry x="60" y="12" width="110" height="26" as="geometry"/>
                </mxCell>
                <mxCell id="36" value="https://www.draw.io" style="strokeWidth=1;shadow=0;dashed=0;align=center;html=1;shape=mxgraph.mockup.containers.anchor;rSize=0;fontSize=17;fontColor=#666666;align=left;" parent="34" vertex="1">
                    <mxGeometry x="130" y="60" width="250" height="26" as="geometry"/>
                </mxCell>
                <mxCell id="37" value="" style="line;strokeWidth=2;html=1;" parent="34" vertex="1">
                    <mxGeometry x="10" y="170" width="940" height="10" as="geometry"/>
                </mxCell>
                <mxCell id="38" value="LOGO" style="shape=ext;double=1;rounded=1;whiteSpace=wrap;html=1;" parent="34" vertex="1">
                    <mxGeometry x="10" y="120" width="90" height="50" as="geometry"/>
                </mxCell>
                <mxCell id="39" value="Home" style="text;html=1;strokeColor=none;fillColor=none;align=center;verticalAlign=middle;whiteSpace=wrap;rounded=0;" parent="34" vertex="1">
                    <mxGeometry x="700" y="150" width="60" height="20" as="geometry"/>
                </mxCell>
                <mxCell id="40" value="Services" style="text;html=1;strokeColor=none;fillColor=none;align=center;verticalAlign=middle;whiteSpace=wrap;rounded=0;" parent="34" vertex="1">
                    <mxGeometry x="750" y="150" width="60" height="20" as="geometry"/>
                </mxCell>
                <mxCell id="41" value="About" style="text;html=1;strokeColor=none;fillColor=none;align=center;verticalAlign=middle;whiteSpace=wrap;rounded=0;" parent="34" vertex="1">
                    <mxGeometry x="800" y="150" width="60" height="20" as="geometry"/>
                </mxCell>
                <mxCell id="42" value="Contact" style="text;html=1;strokeColor=none;fillColor=none;align=center;verticalAlign=middle;whiteSpace=wrap;rounded=0;" parent="34" vertex="1">
                    <mxGeometry x="850" y="150" width="60" height="20" as="geometry"/>
                </mxCell>
                <mxCell id="43" value="&lt;h3&gt;&lt;strong&gt;Our Services&lt;/strong&gt;&lt;/h3&gt;&lt;p&gt;At SG-Siding we specialize in providing premium siding and soffit solutions for residential properties. With a focus on quality craftsmanship and lasting durability, we ensure every project enhances the beauty, functionality, and protection of your home.&lt;/p&gt;&lt;h4&gt;&lt;strong&gt;Siding Installation and Replacement&lt;/strong&gt;&lt;/h4&gt;&lt;p&gt;Transform your home with expertly installed siding that combines aesthetics with resilience. We offer a variety of siding options, including:&lt;/p&gt;&lt;ul&gt;&lt;li&gt;&lt;strong&gt;Vinyl Siding&lt;/strong&gt;: Cost-effective, low-maintenance, and available in a range of colors and styles.&lt;/li&gt;&lt;li&gt;&lt;strong&gt;Fiber Cement Siding&lt;/strong&gt;: Durable and designed to withstand extreme weather conditions.&lt;/li&gt;&lt;li&gt;&lt;strong&gt;Wood Siding&lt;/strong&gt;: Classic, timeless, and perfect for a natural look.&lt;/li&gt;&lt;/ul&gt;&lt;p&gt;Whether you're building a new home or upgrading your current siding, we provide customized solutions that align with your style and budget.&lt;/p&gt;&lt;h4&gt;&lt;strong&gt;Soffit Installation and Replacement&lt;/strong&gt;&lt;/h4&gt;&lt;p&gt;Protect and ventilate your home with professionally installed soffits. Proper soffit systems not only enhance the appearance of your eaves but also improve air circulation and prevent moisture buildup.&lt;/p&gt;&lt;ul&gt;&lt;li&gt;Designed to complement your siding seamlessly.&lt;/li&gt;&lt;li&gt;Available in durable, weather-resistant materials.&lt;/li&gt;&lt;li&gt;Customizable to match your home’s design.&lt;/li&gt;&lt;/ul&gt;&lt;hr&gt;&lt;h3&gt;&lt;strong&gt;Why Choose Us?&lt;/strong&gt;&lt;/h3&gt;&lt;ul&gt;&lt;li&gt;&lt;strong&gt;Expert Craftsmanship&lt;/strong&gt;: Precision installation for a flawless finish.&lt;/li&gt;&lt;li&gt;&lt;strong&gt;Durable Materials&lt;/strong&gt;: High-quality products to stand the test of time.&lt;/li&gt;&lt;li&gt;&lt;strong&gt;Customer Satisfaction&lt;/strong&gt;: Personalized service tailored to your needs.&lt;/li&gt;&lt;/ul&gt;&lt;p&gt;From start to finish, our team is dedicated to delivering results that exceed expectations. Contact us today to discuss your siding or soffit needs and get a free quote!&lt;/p&gt;" style="text;html=1;strokeColor=none;fillColor=none;align=center;verticalAlign=middle;whiteSpace=wrap;rounded=0;" parent="34" vertex="1">
                    <mxGeometry x="155" y="330" width="665" height="310" as="geometry"/>
                </mxCell>
                <mxCell id="44" value="&lt;a style=&quot;scrollbar-color: var(--scroll-bar-bg-color) transparent; color: inherit; box-sizing: border-box; scrollbar-width: thin; font-family: Roboto, &amp;quot;Helvetica Neue&amp;quot;, sans-serif, &amp;quot;Noto Color Emoji&amp;quot;, &amp;quot;apple color emoji&amp;quot;, &amp;quot;windows emoji&amp;quot;, &amp;quot;windows symbol&amp;quot;; font-size: 14px; font-style: normal; font-variant-ligatures: normal; font-variant-caps: normal; font-weight: 400; letter-spacing: 0.2px; orphans: 2; text-align: start; text-indent: 0px; text-transform: none; widows: 2; word-spacing: 0px; -webkit-text-stroke-width: 0px; background-color: rgb(13, 14, 14);&quot; href=&quot;mailto:shaungersthofer@gmail.com&quot; rel=&quot;nofollow&quot; class=&quot;msg-focus-element&quot; target=&quot;_blank&quot; tabindex=&quot;0&quot;&gt;shaungersthofer@gmail.com&lt;/a&gt;" style="text;whiteSpace=wrap;html=1;" parent="1" vertex="1">
                    <mxGeometry x="1240" y="80" width="220" height="40" as="geometry"/>
                </mxCell>
            </root>
        </mxGraphModel>
    </diagram>
</mxfile>